<svg width="80" height="80" viewBox="0 0 80 80" fill="none" xmlns="http://www.w3.org/2000/svg">
<path d="M17.9208 75.8827L67.3349 26.3709L53.9596 12.9957L4.5456 62.5074L1.10232 74.4937C0.679143 75.6005 1.60597 77.2598 2.4686 78.0573C3.33121 78.8548 4.95788 79.7817 5.93442 79.4236L17.9208 75.8827ZM72.5107 21.244L77.9794 15.7752C79.249 14.4732 79.9082 13.0897 79.957 11.6248C80.0058 10.16 79.4117 8.79285 78.1747 7.52332L72.9049 2.2046C71.6354 0.935066 70.2519 0.340996 68.7546 0.422396C67.2572 0.503796 65.8737 1.17927 64.6042 2.4488L59.1354 7.8687L72.5107 21.244Z" fill="black"/>
</svg>
