<svg width="66" height="100" viewBox="0 0 66 100" fill="none" xmlns="http://www.w3.org/2000/svg">
<path d="M0 87.7297C0 91.3258 1.2152 94.2699 3.64561 96.5619C6.07594 98.854 9.18796 100 12.9817 100H52.6071C56.4403 100 59.5721 98.854 62.0025 96.5619C64.4328 94.2699 65.648 91.3258 65.648 87.7297V12.2703C65.648 8.67412 64.4328 5.73003 62.0025 3.43802C59.5721 1.14601 56.4403 0 52.6071 0H12.9817C9.18796 0 6.07594 1.14601 3.64561 3.43802C1.2152 5.73003 0 8.67412 0 12.2703V87.7297ZM6.53593 88.2478V11.7522C6.53593 10.1319 7.0299 8.8575 8.0178 7.92885C9.0058 7.00015 10.3691 6.5358 12.1079 6.5358H53.4808C55.2196 6.5358 56.583 7.00015 57.5709 7.92885C58.5588 8.8575 59.0528 10.1319 59.0528 11.7522V88.2478C59.0528 89.868 58.5588 91.1425 57.5709 92.0711C56.583 92.9998 55.2196 93.4641 53.4808 93.4641H12.1079C10.3691 93.4641 9.0058 92.9998 8.0178 92.0711C7.0299 91.1425 6.53593 89.868 6.53593 88.2478Z" fill="black"/>
<path d="M20.8717 27.9995C22.7818 27.9995 24.4474 27.2774 25.8685 25.833C27.2895 24.3887 28 22.6649 28 20.6615C28 18.7047 27.2895 17.0159 25.8685 15.5949C24.4474 14.1739 22.7818 13.4634 20.8717 13.4634C18.8217 13.4634 17.0746 14.1739 15.6303 15.5949C14.186 17.0159 13.4639 18.7047 13.4639 20.6615C13.4639 22.6649 14.186 24.3887 15.6303 25.833C17.0746 27.2774 18.8217 27.9995 20.8717 27.9995Z" fill="black"/>
</svg>
