<svg width="66" height="100" viewBox="0 0 66 100" fill="none" xmlns="http://www.w3.org/2000/svg">
<path d="M0 87.7297C0 91.3258 1.2152 94.2699 3.64561 96.5619C6.07594 98.854 9.18796 100 12.9817 100H52.6071C56.4403 100 59.5721 98.854 62.0025 96.5619C64.4328 94.2699 65.648 91.3258 65.648 87.7297V12.2703C65.648 8.67412 64.4328 5.73003 62.0025 3.43802C59.5721 1.14601 56.4403 0 52.6071 0H12.9817C9.18796 0 6.07594 1.14601 3.64561 3.43802C1.2152 5.73003 0 8.67412 0 12.2703V87.7297ZM6.53593 88.2478V11.7522C6.53593 10.1319 7.0299 8.85748 8.01785 7.92885C9.00579 7.00015 10.3691 6.5358 12.1079 6.5358H53.4808C55.2196 6.5358 56.583 7.00015 57.5709 7.92885C58.5588 8.85748 59.0528 10.1319 59.0528 11.7522V88.2478C59.0528 89.868 58.5588 91.1425 57.5709 92.0711C56.583 92.9998 55.2196 93.4641 53.4808 93.4641H12.1079C10.3691 93.4641 9.00579 92.9998 8.01785 92.0711C7.0299 91.1425 6.53593 89.868 6.53593 88.2478Z" fill="black"/>
<path d="M19.632 68H46.9117C48.0614 68 48.9586 67.7518 49.6031 67.2553C50.2476 66.7588 50.5699 66.0751 50.5699 65.2041C50.5699 63.8802 50.1692 62.4866 49.3679 61.0233C48.5666 59.56 47.4169 58.1882 45.9188 56.9078C44.4206 55.6275 42.6046 54.5867 40.4707 53.7853C38.3367 52.984 35.9371 52.5834 33.2719 52.5834C30.6066 52.5834 28.2114 52.984 26.0862 53.7853C23.9609 54.5867 22.1492 55.6275 20.6511 56.9078C19.153 58.1882 18.0033 59.56 17.202 61.0233C16.4007 62.4866 16 63.8802 16 65.2041C16 66.0751 16.3179 66.7588 16.9538 67.2553C17.5896 67.7518 18.4823 68 19.632 68ZM33.2719 48.9251C34.7352 48.9251 36.0939 48.5245 37.3482 47.7232C38.6024 46.9219 39.6127 45.8331 40.3792 44.4569C41.1457 43.0808 41.5289 41.5391 41.5289 39.832C41.5289 38.1248 41.1457 36.6049 40.3792 35.2722C39.6127 33.9396 38.6024 32.8945 37.3482 32.1367C36.0939 31.3789 34.7352 31 33.2719 31C31.826 31 30.476 31.3876 29.2218 32.1628C27.9675 32.938 26.9571 33.9962 26.1907 35.3376C25.4242 36.6789 25.041 38.1945 25.041 39.8842C25.041 41.5739 25.4242 43.1025 26.1907 44.47C26.9571 45.8375 27.9675 46.9219 29.2218 47.7232C30.476 48.5245 31.826 48.9251 33.2719 48.9251Z" fill="black"/>
</svg>
