<svg width="40" height="40" viewBox="0 0 40 40" fill="none" xmlns="http://www.w3.org/2000/svg">
<path d="M2.34336 -1.53013e-07C2.74157 -1.53013e-07 3.12064 0.0900912 3.48058 0.27027C3.84049 0.450449 4.2119 0.69069 4.5948 0.990993L25.2715 16.5465C26.1139 17.1872 26.6959 17.7527 27.0175 18.2432C27.3392 18.7337 27.5 19.3193 27.5 20C27.5 20.6807 27.3392 21.2663 27.0175 21.7567C26.6959 22.2472 26.1139 22.8128 25.2715 23.4534L4.5948 39.009C4.2119 39.3093 3.84049 39.5496 3.48058 39.7298C3.12064 39.9099 2.74157 40 2.34336 40C1.62352 40 1.05299 39.6647 0.631791 38.994C0.210597 38.3233 0 37.4274 0 36.3063V3.6937C0 2.57257 0.210597 1.67668 0.631791 1.00601C1.05299 0.335336 1.62352 -1.53013e-07 2.34336 -1.53013e-07Z" fill="white"/>
<rect width="6.25" height="40" rx="3.125" transform="matrix(1 0 0 -1 33.2812 40)" fill="white"/>
</svg>
