<svg width="91" height="83" viewBox="0 0 91 83" fill="none" xmlns="http://www.w3.org/2000/svg">
<path d="M12.2559 82.3242H52.7344C56.8359 82.3242 59.9121 81.2907 61.9629 79.2236C64.0137 77.1566 65.0391 74.0397 65.0391 69.873V45.5566H37.4512C36.2793 45.5566 35.2702 45.1253 34.4239 44.2627C33.5775 43.4 33.1543 42.3665 33.1543 41.1621C33.1543 39.9577 33.5775 38.9242 34.4239 38.0615C35.2702 37.1989 36.2793 36.7676 37.4512 36.7676H65.0391V12.4512C65.0391 8.31707 64.0137 5.20833 61.9629 3.125C59.9121 1.04167 56.8359 0 52.7344 0H12.2559C8.15428 0 5.08625 1.04167 3.05178 3.125C1.01726 5.20833 0 8.31707 0 12.4512V69.873C0 74.0397 1.01726 77.1566 3.05178 79.2236C5.08625 81.2907 8.15428 82.3242 12.2559 82.3242ZM61.5723 41.1621C61.5723 42.1061 61.9059 42.9199 62.5733 43.6035C63.2405 44.2871 64.0462 44.6289 64.9903 44.6289H75.586L81.3965 44.3359L79.1992 46.4355L73.3887 51.8066C72.7051 52.3925 72.3633 53.1738 72.3633 54.1504C72.3633 55.0619 72.6481 55.8187 73.2178 56.4209C73.7874 57.0231 74.5117 57.3242 75.3906 57.3242C76.237 57.3242 77.002 56.9824 77.6856 56.2988L89.7461 43.7012C90.2016 43.2455 90.5107 42.8223 90.6734 42.4316C90.8367 42.041 90.9184 41.6178 90.9184 41.1621C90.9184 40.7064 90.8367 40.2832 90.6734 39.8926C90.5107 39.5019 90.2016 39.0787 89.7461 38.623L77.6856 26.0254C77.002 25.3418 76.237 25 75.3906 25C74.5117 25 73.7874 25.293 73.2178 25.8789C72.6481 26.4648 72.3633 27.2135 72.3633 28.125C72.3633 29.1341 72.7051 29.9317 73.3887 30.5176L79.1992 35.8887L81.3965 37.9883L75.586 37.6953H64.9903C64.0462 37.6953 63.2405 38.0371 62.5733 38.7207C61.9059 39.4043 61.5723 40.2181 61.5723 41.1621Z" fill="black"/>
</svg>
