<svg width="25" height="21" viewBox="0 0 25 21" fill="none" xmlns="http://www.w3.org/2000/svg">
<path d="M4.50898 14.018C4.22156 14.018 3.99402 13.9312 3.82635 13.7575C3.65869 13.5839 3.57486 13.3593 3.57486 13.0839V10.4431H0.934133C0.646707 10.4431 0.419161 10.3563 0.251496 10.1827C0.0838321 10.009 0 9.78445 0 9.509C0 9.23355 0.0838321 9.009 0.251496 8.83535C0.419161 8.66169 0.646707 8.57487 0.934133 8.57487H3.57486V5.93415C3.57486 5.65868 3.65869 5.43413 3.82635 5.26048C3.99402 5.08683 4.22156 5 4.50898 5C4.78445 5 5.00601 5.08683 5.17368 5.26048C5.34132 5.43413 5.42514 5.65868 5.42514 5.93415V8.57487H8.06589C8.35332 8.57487 8.58087 8.66169 8.74854 8.83535C8.91618 9.009 9 9.23355 9 9.509C9 9.78445 8.91618 10.009 8.74854 10.1827C8.58087 10.3563 8.35332 10.4431 8.06589 10.4431H5.42514V13.0839C5.42514 13.3593 5.34132 13.5839 5.17368 13.7575C5.00601 13.9312 4.78445 14.018 4.50898 14.018Z" fill="white"/>
<path d="M7.06143 21H22.5445C23.197 21 23.7062 20.8591 24.072 20.5773C24.4378 20.2956 24.6207 19.9075 24.6207 19.4131C24.6207 18.6617 24.3933 17.8708 23.9385 17.0403C23.4837 16.2098 22.8312 15.4311 21.9809 14.7044C21.1306 13.9778 20.0999 13.387 18.8888 12.9322C17.6776 12.4774 16.3157 12.25 14.803 12.25C13.2902 12.25 11.9308 12.4774 10.7246 12.9322C9.51835 13.387 8.4901 13.9778 7.63982 14.7044C6.78954 15.4311 6.137 16.2098 5.6822 17.0403C5.2274 17.8708 5 18.6617 5 19.4131C5 19.9075 5.18044 20.2956 5.54133 20.5773C5.9022 20.8591 6.4089 21 7.06143 21ZM14.803 10.1737C15.6335 10.1737 16.4047 9.94632 17.1165 9.49152C17.8284 9.03674 18.4018 8.4188 18.8369 7.63771C19.2719 6.85664 19.4894 5.98165 19.4894 5.01274C19.4894 4.0438 19.2719 3.18115 18.8369 2.42479C18.4018 1.66844 17.8284 1.07523 17.1165 0.64515C16.4047 0.21505 15.6335 0 14.803 0C13.9823 0 13.2161 0.21999 12.5042 0.659971C11.7924 1.09993 11.2189 1.70057 10.7839 2.46187C10.3489 3.22318 10.1314 4.08335 10.1314 5.04238C10.1314 6.00141 10.3489 6.86899 10.7839 7.64512C11.2189 8.42127 11.7924 9.03674 12.5042 9.49152C13.2161 9.94632 13.9823 10.1737 14.803 10.1737Z" fill="white"/>
</svg>
