<svg width="86" height="81" viewBox="0 0 86 81" fill="none" xmlns="http://www.w3.org/2000/svg">
<path d="M24.5117 80.2734C25.5859 80.2734 26.5625 79.9886 27.4414 79.4189C28.3203 78.8493 29.4271 77.9622 30.7617 76.7578L43.8477 65.0391H66.7969C70.8008 65.0391 74.1618 64.3311 76.8799 62.915C79.598 61.499 81.6488 59.432 83.0323 56.7139C84.4157 53.9958 85.1074 50.6673 85.1074 46.7285V18.3106C85.1074 14.3718 84.4157 11.0433 83.0323 8.3252C81.6488 5.60713 79.598 3.54007 76.8799 2.124C74.1618 0.708001 70.8008 0 66.7969 0H18.3106C14.3066 0 10.9456 0.708001 8.22758 2.124C5.50945 3.54007 3.45865 5.60713 2.07518 8.3252C0.691727 11.0433 0 14.3718 0 18.3106V46.7285C0 50.6673 0.691727 53.9958 2.07518 56.7139C3.45865 59.432 5.50945 61.499 8.22758 62.915C10.9456 64.3311 14.3066 65.0391 18.3106 65.0391H19.7266V74.7559C19.7266 76.4486 20.1416 77.7913 20.9717 78.7842C21.8017 79.777 22.9817 80.2734 24.5117 80.2734ZM26.3184 72.2656V61.2793C26.3184 60.0749 26.0661 59.2285 25.5615 58.7402C25.0569 58.2519 24.2187 58.0078 23.0469 58.0078H18.3106C14.3718 58.0078 11.5072 57.0638 9.71678 55.1758C7.92645 53.2878 7.03128 50.472 7.03128 46.7285V18.3106C7.03128 14.5671 7.92645 11.7594 9.71678 9.8877C11.5072 8.01597 14.3718 7.0801 18.3106 7.0801H66.7969C70.7357 7.0801 73.6002 8.01597 75.3906 9.8877C77.181 11.7594 78.0762 14.5671 78.0762 18.3106V46.7285C78.0762 50.472 77.181 53.2878 75.3906 55.1758C73.6002 57.0638 70.7357 58.0078 66.7969 58.0078H43.4571C42.2851 58.0078 41.333 58.1299 40.6006 58.374C39.8682 58.6181 39.1113 59.1634 38.3301 60.0098L26.3184 72.2656Z" fill="white"/>
<path d="M29.9805 50.6348C31.5756 50.6348 32.6823 49.707 33.3008 47.8515L35.8399 40.1855H49.2188L51.8067 47.8515C52.4252 49.707 53.5319 50.6348 55.127 50.6348C56.1035 50.6348 56.8848 50.358 57.4707 49.8046C58.0566 49.2512 58.3496 48.5188 58.3496 47.6073C58.3496 47.0214 58.1869 46.2727 57.8614 45.3612L47.4121 17.0409C46.5658 14.7623 44.9382 13.623 42.5293 13.623C40.153 13.623 38.5254 14.7623 37.6465 17.0409L27.2461 45.3612C26.9206 46.2727 26.7578 47.0214 26.7578 47.6073C26.7578 48.5188 27.0508 49.2512 27.6367 49.8046C28.2226 50.358 29.0039 50.6348 29.9805 50.6348ZM37.5489 35.0585L42.334 20.8983H42.7735L47.5586 35.0585H37.5489Z" fill="white"/>
</svg>
