<svg width="40" height="40" viewBox="0 0 40 40" fill="none" xmlns="http://www.w3.org/2000/svg">
<path d="M37.1879 40C36.7897 40 36.4106 39.9099 36.0507 39.7297C35.6908 39.5496 35.3194 39.3093 34.9365 39.009L14.2597 23.4535C13.4174 22.8128 12.8353 22.2473 12.5137 21.7568C12.1921 21.2663 12.0312 20.6807 12.0312 20C12.0312 19.3193 12.1921 18.7337 12.5137 18.2433C12.8353 17.7528 13.4174 17.1872 14.2597 16.5466L34.9365 0.990977C35.3194 0.690686 35.6908 0.450437 36.0507 0.270237C36.4106 0.090079 36.7897 0 37.1879 0C37.9077 0 38.4783 0.335329 38.8995 1.00598C39.3207 1.67668 39.5312 2.57257 39.5312 3.69366L39.5312 36.3063C39.5312 37.4274 39.3207 38.3233 38.8995 38.994C38.4783 39.6647 37.9077 40 37.1879 40Z" fill="white"/>
<rect width="6.25" height="40" rx="3.125" transform="matrix(-1 0 0 1 6.25 0)" fill="white"/>
</svg>
