<svg width="91" height="70" viewBox="0 0 91 70" fill="none" xmlns="http://www.w3.org/2000/svg">
<path d="M0.600147 6.19404C0.600147 7.50235 0.908994 8.68053 1.52669 9.72858C2.14438 10.7766 3.13456 11.9967 4.49721 13.3887L25.4699 34.5372C25.7266 34.7938 25.8549 35.0148 25.8549 35.1999C25.8549 35.385 25.7266 35.6059 25.4699 35.8626L4.49721 57.0112C3.13456 58.4031 2.14438 59.6248 1.52669 60.6762C0.908994 61.7274 0.600147 62.904 0.600147 64.2059C0.600147 65.9496 1.19675 67.3512 2.38997 68.4107C3.58318 69.4702 5.09346 70 6.9208 70C7.89811 70 8.95745 69.8359 10.0988 69.5077C11.2402 69.1796 12.3885 68.8046 13.5439 68.3828L84.1155 42.3334C86.3496 41.5185 88.0297 40.516 89.1557 39.326C90.2817 38.1359 90.8447 36.7605 90.8447 35.1999C90.8447 33.6392 90.2833 32.2639 89.1605 31.0739C88.0377 29.8839 86.3561 28.8814 84.1155 28.0665L13.5439 2.01707C12.3885 1.6017 11.2402 1.22833 10.0988 0.896957C8.95745 0.565587 7.89811 0.399902 6.9208 0.399902C5.09346 0.399902 3.58318 0.929663 2.38997 1.98918C1.19675 3.04868 0.600147 4.4503 0.600147 6.19404Z" fill="black"/>
</svg>
